<svg version="1.1" id="Layer_1" xmlns="http://www.w3.org/2000/svg" xmlns:xlink="http://www.w3.org/1999/xlink" x="0px" y="0px"
	 width="100%" viewBox="0 0 400 384" enable-background="new 0 0 400 384" xml:space="preserve">
<path fill="#000000" opacity="1.000000" stroke="none" 
	d="
M401.000000,170.532059 
	C398.084229,164.383194 397.971619,157.111588 396.201141,150.202499 
	C390.031036,126.124184 379.584442,104.217987 364.467743,84.573677 
	C338.320557,50.595230 304.258759,28.504076 262.735016,18.105833 
	C243.386307,13.260591 223.703522,12.185415 203.770401,13.943656 
	C173.946716,16.574308 146.606857,26.082447 121.464958,42.176411 
	C120.188370,42.993576 118.955162,43.925171 117.284294,42.769562 
	C116.427795,40.071224 118.800880,39.399849 120.327538,38.466408 
	C145.400635,23.136024 172.314255,13.327113 201.769516,10.590109 
	C247.754211,6.317176 289.689880,17.225433 327.371094,43.794872 
	C360.864288,67.411285 383.711395,99.074303 396.557526,137.958298 
	C398.119598,142.686417 399.366882,147.518509 400.880005,152.651215 
	C401.000000,158.688034 401.000000,164.376083 401.000000,170.532059 
z"/>
<path fill="#000000" opacity="1.000000" stroke="none" 
	d="
M401.000000,237.531723 
	C398.793274,244.575790 396.564758,251.144379 394.385803,257.729340 
	C392.088043,264.673401 389.058716,271.303284 385.796326,277.830750 
	C385.024719,279.374603 384.439301,281.338593 382.039764,280.965210 
	C380.854370,279.316162 381.821136,277.974548 382.448517,276.703430 
	C391.248535,258.873535 397.198486,240.160263 400.012543,220.462646 
	C400.056488,220.155090 400.310211,219.877518 400.733032,219.292969 
	C401.000000,225.021149 401.000000,231.042297 401.000000,237.531723 
z"/>
<path fill="#000000" opacity="1.000000" stroke="none" 
	d="
M99.785461,323.710510 
	C98.929268,316.699158 102.427444,310.086121 99.486809,303.502380 
	C99.000656,302.413910 99.940903,301.249390 101.253555,300.908447 
	C102.986107,300.458405 104.680702,300.643280 105.738800,302.212494 
	C106.780067,303.756744 107.546265,305.635284 106.335358,307.350800 
	C101.729584,313.875885 102.143639,321.078735 103.383202,328.361938 
	C104.005615,332.019012 105.564537,335.297577 109.426399,338.727142 
	C108.560471,335.030884 107.906265,332.474823 107.368690,329.894440 
	C106.250008,324.524658 107.685699,319.662140 110.542389,315.152802 
	C112.161263,312.597412 113.983551,311.904541 115.687180,315.098663 
	C120.330757,323.804901 123.926086,332.634216 119.401756,342.624481 
	C117.855782,346.038239 119.189148,347.330292 125.392426,348.660645 
	C125.378891,345.690460 124.341530,343.167236 122.815536,340.762634 
	C121.988487,339.459442 121.388809,338.047729 122.648766,336.643524 
	C123.397659,335.808868 124.417908,335.669830 125.399208,336.035095 
	C127.160149,336.690521 127.890739,338.006683 127.833054,339.923401 
	C127.583519,348.215240 131.029373,353.819672 138.768967,357.647583 
	C167.491394,371.853424 197.840881,377.848480 229.697128,376.588745 
	C236.490036,376.320099 243.246719,375.093903 250.014679,374.264801 
	C251.637726,374.066010 253.374161,373.360382 253.983276,376.168884 
	C250.214066,378.468292 245.806717,378.499939 241.694717,378.969940 
	C202.469498,383.454010 165.457138,376.238678 130.808411,357.287628 
	C127.432808,355.441345 124.623077,353.927277 121.838356,357.875671 
	C121.478600,358.385834 120.797508,358.701416 120.217056,359.018951 
	C112.674423,363.145142 96.355164,361.431915 89.417892,355.799255 
	C89.655334,353.898743 91.817528,353.642609 92.670006,351.962708 
	C89.779236,351.955414 87.006660,351.832428 84.495354,350.468842 
	C80.010574,348.033722 79.206757,343.671112 82.844154,340.098267 
	C84.708916,338.266602 84.347969,336.263519 84.378807,333.752167 
	C64.769676,336.602753 46.426476,335.976959 34.679714,316.461273 
	C39.630306,312.729279 57.552910,311.956543 75.154137,314.362762 
	C72.705856,309.781616 63.974152,306.351013 59.377491,308.319946 
	C57.528038,309.112152 55.821358,309.716736 54.525703,307.758911 
	C53.328705,305.950073 53.306355,303.888123 54.726444,302.174347 
	C56.274742,300.305878 58.101971,301.183136 59.638504,302.258087 
	C62.879124,304.525269 66.767929,304.913574 70.385597,306.309662 
	C68.871414,300.960022 65.226486,297.866699 60.274315,297.095795 
	C52.709934,295.918274 45.107170,294.826569 37.659718,293.099060 
	C28.152828,290.893860 22.664238,284.240173 20.054586,275.124878 
	C19.097883,271.783203 19.375685,268.500793 22.695541,266.095551 
	C28.280483,268.192413 33.820103,270.464417 39.489140,272.346588 
	C45.127254,274.218445 49.746502,277.696747 54.518425,281.518219 
	C54.005882,272.390076 49.067360,266.093811 40.881561,264.578705 
	C23.192793,261.304688 13.063782,250.567352 9.480712,233.315018 
	C8.564989,228.905838 6.500386,224.490845 8.535354,218.445801 
	C16.598175,226.560303 26.451147,231.047516 34.062393,238.781036 
	C32.961250,232.559967 30.701773,226.818573 30.084644,220.691666 
	C29.580906,215.690491 29.211243,210.724777 30.955173,205.869202 
	C32.327827,202.047363 34.570805,201.473373 37.784603,203.931564 
	C43.961205,208.655991 47.808300,215.344849 48.466694,222.542953 
	C49.323940,231.915192 54.953548,237.901505 60.298328,244.804932 
	C63.094704,239.817551 65.568436,234.678345 70.392616,231.389679 
	C71.888390,230.370010 73.433052,228.825409 75.335602,229.687851 
	C77.225548,230.544601 77.115044,232.669098 77.321030,234.499786 
	C78.191414,242.235352 75.727516,248.988785 71.096001,254.996109 
	C69.432114,257.154205 68.755943,258.790253 70.051254,261.622375 
	C72.633728,267.268799 71.538788,273.291107 69.200653,278.637726 
	C65.195816,287.795563 67.192688,295.402679 74.095619,302.959625 
	C73.706451,299.454742 73.004089,296.509674 73.159386,293.610565 
	C73.326424,290.492523 74.324348,287.422516 74.908203,284.321838 
	C75.227013,282.628693 75.562744,280.944916 77.615463,280.615112 
	C78.884422,280.411224 79.918213,280.999573 80.450256,282.199646 
	C81.278084,284.066895 80.427078,285.429474 78.939583,286.471924 
	C76.590416,288.118225 76.313423,290.535065 76.245125,293.109650 
	C76.058556,300.143890 78.149803,306.504700 81.917786,312.480286 
	C80.491402,304.253296 81.338684,296.496185 85.544632,289.145172 
	C87.318245,286.045349 88.878929,285.631561 91.106361,288.351868 
	C97.760132,296.477905 98.141670,311.510925 91.818726,319.945648 
	C90.848297,321.240173 90.479507,322.313385 91.557434,323.445770 
	C94.141891,326.160767 96.570709,329.098846 100.423248,331.124756 
	C100.177040,328.405334 99.984795,326.281952 99.785461,323.710510 
M45.060745,324.503296 
	C57.673607,333.057404 78.823311,334.828583 85.274544,327.461823 
	C74.938156,321.941986 63.140953,324.872559 52.593548,321.066986 
	C61.974586,318.567902 71.371071,322.196167 80.727486,320.732727 
	C67.665375,314.087891 54.001713,316.242279 40.074764,317.224213 
	C40.884674,320.638062 42.882248,322.212524 45.060745,324.503296 
M13.022617,233.333939 
	C15.317722,247.789139 27.649401,261.149902 43.052368,261.002075 
	C42.423023,260.046295 42.023491,259.130310 41.361897,258.481628 
	C32.807991,250.094543 24.220535,241.741669 15.627069,233.395081 
	C15.020023,232.805450 14.285529,232.393250 13.022617,233.333939 
M25.759666,274.468506 
	C23.318043,275.500854 23.152588,275.583954 24.268297,277.805023 
	C27.381353,284.002197 31.881334,288.748138 38.918850,290.308411 
	C44.272392,291.495331 49.684956,292.423065 55.085979,293.383331 
	C56.287128,293.596924 57.689007,294.242554 58.807880,292.673096 
	C55.063797,287.444214 49.548885,285.042664 43.653210,283.943909 
	C36.799076,282.666473 31.234516,279.424194 25.759666,274.468506 
M57.163132,275.436493 
	C57.504196,275.733734 57.845257,276.031006 58.186302,276.328278 
	C58.271061,276.192139 58.424881,276.058899 58.430752,275.919464 
	C58.922646,264.237915 53.437527,254.395248 48.880840,243.669434 
	C46.559044,247.724533 46.894367,251.282028 48.321697,254.749222 
	C51.101551,261.501892 54.046383,268.186615 57.163132,275.436493 
M38.639725,239.741379 
	C39.713627,241.673630 40.787529,243.605865 41.861431,245.538116 
	C40.311016,233.450409 38.694439,221.538040 34.103397,210.295044 
	C31.816889,220.444168 34.869686,229.774872 38.639725,239.741379 
M45.520615,239.411240 
	C49.030334,232.004059 46.115334,217.633865 39.421608,213.605911 
	C41.396103,222.622543 43.206383,230.889297 45.520615,239.411240 
M84.656212,343.402893 
	C82.814102,345.988220 84.982018,346.979614 86.632477,347.880798 
	C90.404259,349.940216 94.944435,348.178436 97.197083,343.755341 
	C93.243256,342.265381 89.328171,341.650055 84.656212,343.402893 
M41.965115,280.405701 
	C43.794754,280.690918 45.624390,280.976135 48.680428,281.452484 
	C42.601471,275.617523 35.886150,274.586121 29.538471,272.663177 
	C32.404606,276.870911 36.509190,279.021088 41.965115,280.405701 
M118.154915,337.064514 
	C119.032509,331.541077 118.026276,326.411407 114.518555,320.379059 
	C114.006790,327.737946 114.192497,333.640167 116.448326,340.269562 
	C117.268929,338.787048 117.580818,338.223572 118.154915,337.064514 
M105.466759,347.725433 
	C107.587875,347.309906 109.944191,347.683014 112.351067,345.853851 
	C109.184242,343.873383 107.173241,340.528564 103.419014,341.562531 
	C100.368530,342.402618 101.070190,345.713776 99.862755,348.434174 
	C101.867744,348.173798 103.291946,347.988861 105.466759,347.725433 
M87.701912,303.631592 
	C87.658867,301.015045 87.671509,298.390106 86.604286,295.818695 
	C83.462708,301.728363 83.429657,307.017212 86.493164,313.238007 
	C87.842659,310.390991 87.705032,307.436676 87.701912,303.631592 
M68.696190,252.795441 
	C71.897812,248.657669 74.240082,244.243988 73.394653,238.764877 
	C71.643944,240.846039 70.444756,243.138062 69.313202,245.463013 
	C68.376572,247.387482 67.420555,249.313156 66.662361,251.310135 
	C66.155243,252.645844 65.556541,254.466461 68.696190,252.795441 
M108.238594,355.582397 
	C106.371964,355.945526 104.505333,356.308655 102.069374,356.782532 
	C108.863922,359.530029 114.087631,358.993469 117.983109,355.491516 
	C115.014153,355.491516 112.045197,355.491516 108.238594,355.582397 
M22.300598,235.398148 
	C24.061380,237.147079 25.771547,238.951111 27.597801,240.628769 
	C29.276716,242.171112 30.586870,244.299057 33.545509,245.126221 
	C30.477720,239.390930 25.297281,234.818359 19.098597,232.801636 
	C20.012707,233.516373 20.926819,234.231110 22.300598,235.398148 
M93.601547,308.127136 
	C93.718636,304.618561 93.030899,301.277802 91.356659,296.772552 
	C91.356659,303.259460 91.356659,308.392426 91.356659,314.325226 
	C93.247963,312.204010 93.271576,310.507599 93.601547,308.127136 
M97.347046,335.737610 
	C98.343239,336.254333 99.339432,336.771088 100.335625,337.287811 
	C93.469772,329.900909 91.663422,329.085968 88.286690,331.357758 
	C91.136696,332.709961 93.955559,334.047394 97.347046,335.737610 
M102.064445,352.495361 
	C106.128410,352.977722 110.133026,352.824219 115.383240,351.318542 
	C109.984840,349.761719 106.090599,350.641418 102.064445,352.495361 
M90.326561,335.794159 
	C88.880753,335.708740 87.552841,336.027954 87.619308,337.755219 
	C87.676399,339.238922 88.970924,339.341827 90.181358,339.326660 
	C91.968529,339.304199 93.756187,339.320862 96.215714,339.320862 
	C94.171135,337.452454 92.745331,336.398041 90.326561,335.794159 
M64.655449,247.951447 
	C65.688133,245.603607 66.720818,243.255768 67.753502,240.907928 
	C63.869522,245.085632 63.057751,247.072357 62.994244,251.608017 
	C63.577473,250.326736 63.980980,249.440277 64.655449,247.951447 
z"/>
<path fill="#000000" opacity="1.000000" stroke="none" 
	d="
M250.290497,134.319580 
	C239.571686,143.078568 229.145950,151.633469 218.638199,160.086395 
	C215.635025,162.502289 214.691162,165.281158 214.860977,169.201096 
	C215.725845,189.165253 219.987320,208.412415 226.340317,227.266708 
	C226.808441,228.656006 227.000824,230.220078 229.114029,231.478088 
	C235.575790,226.037613 241.112289,219.510498 246.099731,212.497940 
	C250.822159,205.857986 255.002930,198.798370 260.087982,192.457443 
	C273.510315,175.720032 293.618896,174.186081 308.496277,188.417267 
	C309.746857,189.613541 312.085052,190.872833 310.517761,192.822220 
	C308.761261,195.006989 306.991089,193.025360 305.438995,191.792450 
	C298.668854,186.414658 291.499634,182.119202 282.329865,182.968246 
	C272.149567,183.910858 265.800415,190.473831 260.731018,198.311996 
	C252.550568,210.960388 243.652908,222.952454 232.265869,232.907257 
	C229.860275,235.010284 229.638168,237.039383 230.671814,239.931259 
	C234.362686,250.257416 238.598572,260.452209 239.277313,271.609375 
	C240.558136,292.663452 228.135056,304.116852 210.688339,307.948334 
	C189.341202,312.636353 171.102646,306.918976 158.027603,288.379791 
	C156.636627,286.407501 154.886688,284.431122 156.125732,281.696716 
	C159.117340,280.832764 159.712936,283.146698 160.563004,284.801758 
	C173.173920,309.354736 203.651733,310.941467 222.173904,300.344849 
	C230.807510,295.405518 235.273483,287.999481 235.902954,278.013855 
	C236.779968,264.101379 232.011658,251.597763 227.059250,238.258713 
	C221.954422,241.532410 217.445679,244.518890 212.844818,247.356003 
	C200.467316,254.988571 186.549927,258.939819 172.446655,258.658844 
	C149.882416,258.209290 132.484116,235.876770 144.263687,211.455963 
	C150.532547,198.459671 160.340546,188.233795 170.789673,178.596436 
	C182.440247,167.850922 195.051590,158.271576 207.755463,148.829025 
	C210.794281,146.570328 212.233978,143.917374 212.793060,140.154541 
	C215.059174,124.902878 219.384720,110.267601 226.946365,96.715584 
	C229.734390,91.718887 233.347870,87.390381 237.593155,83.572395 
	C244.562408,77.304611 252.854507,76.187500 261.454102,78.408249 
	C271.870209,81.098083 276.354309,93.130943 271.740967,104.673012 
	C267.121674,116.229805 258.955322,125.240959 250.290497,134.319580 
M188.536392,185.056427 
	C176.362305,195.646744 164.403366,206.345367 155.313828,219.977829 
	C144.821548,235.714066 158.808334,254.025696 174.220428,253.767166 
	C191.778900,253.472595 207.316910,247.561951 221.718323,237.858795 
	C225.157562,235.541580 225.608353,233.376602 224.272491,229.596069 
	C218.555267,213.416000 214.362427,196.840195 212.478790,179.736160 
	C212.050797,175.849960 211.613464,171.964767 211.029007,166.720184 
	C203.115952,173.151642 196.086807,178.864700 188.536392,185.056427 
M259.527557,99.966125 
	C259.959747,99.255043 260.420502,98.559586 260.819580,97.830391 
	C263.624207,92.705948 263.334503,88.655540 259.918884,85.001465 
	C256.353058,81.186722 251.990082,80.628555 246.771729,83.288116 
	C244.064682,84.667770 241.827759,86.629425 239.699249,88.760696 
	C226.340073,102.137192 219.993347,118.862480 216.611008,137.008270 
	C216.384094,138.225525 216.486084,139.335281 218.329422,140.165390 
	C232.824051,128.105362 247.434769,115.874947 259.527557,99.966125 
z"/>
<path fill="#000000" opacity="1.000000" stroke="none" 
	d="
M278.692505,297.381439 
	C275.068848,297.432953 274.235504,299.917145 273.318268,302.250061 
	C270.821899,308.599457 268.322174,314.948303 265.910461,321.330109 
	C261.869873,332.022186 261.898163,332.032867 270.744934,338.553070 
	C259.487854,339.666931 248.219925,339.582733 236.903824,339.160919 
	C236.921402,336.513214 238.365250,336.710846 239.405090,336.541748 
	C245.970016,335.473999 250.105499,331.479645 252.581436,325.570312 
	C265.443115,294.873169 278.177094,264.121887 291.211456,233.498322 
	C293.266815,228.669342 292.427826,225.405273 288.694122,222.163483 
	C282.257812,216.575165 275.047241,214.216309 266.535065,215.807205 
	C263.937378,216.292725 261.311401,218.089737 258.606812,216.602295 
	C258.239838,215.316925 258.815674,214.656326 259.587799,214.337830 
	C277.849243,206.805267 295.011261,208.561874 306.665955,227.059616 
	C315.547272,241.155563 319.486328,257.327881 325.319702,272.704987 
	C332.985504,292.912354 338.662689,313.868652 348.136658,333.393860 
	C353.332520,344.102203 359.591675,354.024536 368.662018,361.990570 
	C375.744507,368.210785 383.680450,371.681213 393.264374,370.861206 
	C394.833710,370.726929 396.596954,370.217010 398.210297,371.939514 
	C397.251404,374.817078 394.429626,374.717529 392.251740,375.160217 
	C374.805145,378.706451 360.980957,372.207825 349.597260,359.362610 
	C336.107269,344.140625 329.454529,325.472015 323.219238,306.607788 
	C322.801300,305.343353 322.242523,304.105072 321.997223,302.807739 
	C321.210327,298.645935 318.818665,297.174377 314.589874,297.254700 
	C302.769348,297.479187 290.942169,297.353485 278.692505,297.381439 
M301.597473,243.114624 
	C300.863617,241.699402 300.734100,239.852554 298.011322,238.921371 
	C291.413483,255.887848 284.822601,272.836365 277.833557,290.808807 
	C290.276001,290.808807 301.215393,290.737457 312.153015,290.844452 
	C316.436066,290.886292 317.342133,289.257019 315.966675,285.321808 
	C311.143463,271.522247 306.502899,257.658813 301.597473,243.114624 
z"/>
<path fill="#000000" opacity="1.000000" stroke="none" 
	d="
M84.631332,111.999916 
	C84.632187,102.833282 84.635803,94.166649 84.634201,85.500023 
	C84.632660,77.140732 82.079849,74.328049 73.653519,73.320030 
	C73.065338,73.249672 72.512207,72.886383 71.358032,72.426117 
	C75.117004,69.480179 79.192986,69.961655 82.913330,69.373451 
	C94.570320,67.530403 106.200020,65.111023 117.937042,64.277588 
	C133.461609,63.175205 149.210999,67.570198 156.185593,83.756775 
	C163.127319,99.867073 160.318634,126.522087 140.373550,134.803741 
	C129.763077,139.209473 118.872589,139.478165 109.075325,132.128540 
	C104.342644,128.578232 102.529526,123.087082 104.082611,118.905281 
	C105.590073,118.603149 106.101357,119.792168 106.684738,120.746407 
	C114.316498,133.229828 130.312347,133.986298 139.049973,122.262337 
	C147.264023,111.240891 147.961914,92.905960 140.343994,81.686638 
	C135.961792,75.232727 129.580978,71.933121 121.819832,71.315247 
	C115.631958,70.822624 109.554031,71.689209 103.427902,72.481575 
	C98.483719,73.121078 96.797081,75.217697 96.877472,80.241676 
	C97.149445,97.237076 96.972618,114.239632 96.969200,131.239456 
	C96.966728,143.572647 96.990341,155.905899 96.959236,168.239014 
	C96.933281,178.529526 97.781631,179.704208 107.815231,182.999237 
	C108.360718,183.178375 108.779602,183.743011 109.308182,184.169144 
	C105.684570,187.012619 75.506989,187.048889 71.863800,184.388367 
	C72.006218,183.402374 72.701065,183.087463 73.572441,182.883286 
	C81.896790,180.932785 84.540001,177.717438 84.575905,168.999420 
	C84.653458,150.166489 84.619911,131.333115 84.631332,111.999916 
z"/>
</svg>